<svg width="44" height="41" viewBox="0 0 44 41" fill="none" xmlns="http://www.w3.org/2000/svg">
<path d="M42.9789 36.7259C42.9789 38.3828 41.6358 39.7259 39.9789 39.7259H28.2539C26.597 39.7259 25.2539 38.3828 25.2539 36.7259V17.6611C25.2539 16.0043 26.5971 14.6611 28.2539 14.6611H32.8744C33.6697 14.6611 34.4325 14.9769 34.995 15.5391L42.0995 22.6385C42.6626 23.2011 42.9789 23.9645 42.9789 24.7605V36.7259Z" stroke="#384D64" stroke-width="2" stroke-linecap="round" stroke-linejoin="round"/>
<path d="M34.1172 14.6611V23.5173H42.9797" stroke="#384D64" stroke-width="2" stroke-linecap="round" stroke-linejoin="round"/>
<path d="M29.6465 28.1377H38.0017" stroke="#384D64" stroke-width="2" stroke-miterlimit="10" stroke-linecap="round"/>
<path d="M29.6465 32.3145H33.8241" stroke="#384D64" stroke-width="2" stroke-miterlimit="10" stroke-linecap="round"/>
<path d="M14.0503 14.1932C14.0503 16.488 12.1892 18.349 9.89427 18.349C7.59935 18.349 5.73828 16.488 5.73828 14.1932V5.88144C5.73828 3.5866 7.59935 1.72559 9.89427 1.72559C12.1892 1.72559 14.0503 3.5866 14.0503 5.88144V14.1932Z" stroke="#384D64" stroke-width="2" stroke-linecap="round" stroke-linejoin="round"/>
<path d="M18.7885 10.5918V14.4451C18.7885 19.3545 14.8095 23.3391 9.89426 23.3391C4.97901 23.3391 1 19.3602 1 14.4451V10.5918" stroke="#384D64" stroke-width="2" stroke-linecap="round" stroke-linejoin="round"/>
<path d="M6.42969 30.2637H13.3601" stroke="#384D64" stroke-width="2" stroke-linecap="round" stroke-linejoin="round"/>
<path d="M9.89258 30.2633V23.3389" stroke="#384D64" stroke-width="2" stroke-linecap="round" stroke-linejoin="round"/>
</svg>
