<svg width="33" height="32" viewBox="0 0 33 32" fill="none" xmlns="http://www.w3.org/2000/svg">
<path d="M12.625 5.15039H32" stroke="#384D64" stroke-width="2" stroke-miterlimit="10" stroke-linecap="round"/>
<path d="M8.75001 9.0254C10.8901 9.0254 12.625 7.2905 12.625 5.1504C12.625 3.01029 10.8901 1.27539 8.75001 1.27539C6.6099 1.27539 4.875 3.01029 4.875 5.1504C4.875 7.2905 6.6099 9.0254 8.75001 9.0254Z" fill="#F8F8FC" stroke="#384D64" stroke-width="2" stroke-miterlimit="10" stroke-linecap="round"/>
<path d="M1 5.15039H4.87501" stroke="#384D64" stroke-width="2" stroke-miterlimit="10" stroke-linecap="round"/>
<path d="M12.625 26.8506H32" stroke="#384D64" stroke-width="2" stroke-miterlimit="10" stroke-linecap="round"/>
<path d="M8.75001 30.7256C10.8901 30.7256 12.625 28.9907 12.625 26.8506C12.625 24.7105 10.8901 22.9756 8.75001 22.9756C6.6099 22.9756 4.875 24.7105 4.875 26.8506C4.875 28.9907 6.6099 30.7256 8.75001 30.7256Z" fill="#F8F8FC" stroke="#384D64" stroke-width="2" stroke-miterlimit="10" stroke-linecap="round"/>
<path d="M1 26.8506H4.87501" stroke="#384D64" stroke-width="2" stroke-miterlimit="10" stroke-linecap="round"/>
<path d="M20.375 16.0518H1" stroke="#384D64" stroke-width="2" stroke-miterlimit="10" stroke-linecap="round"/>
<path d="M24.25 19.9277C26.3901 19.9277 28.125 18.1928 28.125 16.0527C28.125 13.9126 26.3901 12.1777 24.25 12.1777C22.1099 12.1777 20.375 13.9126 20.375 16.0527C20.375 18.1928 22.1099 19.9277 24.25 19.9277Z" fill="#F8F8FC" stroke="#384D64" stroke-width="2" stroke-miterlimit="10" stroke-linecap="round"/>
<path d="M31.9981 16.0518H28.123" stroke="#384D64" stroke-width="2" stroke-miterlimit="10" stroke-linecap="round"/>
</svg>
